<svg width="151" height="48" viewBox="0 0 151 48" fill="none" xmlns="http://www.w3.org/2000/svg">
<path d="M93.036 29.3717C93.4529 28.7474 93.6618 28.1643 93.6628 27.6226C93.6638 27.0809 93.5121 26.6501 93.2077 26.33C92.9034 26.01 92.5017 25.8496 92.0027 25.8487C91.5038 25.8478 91.1016 25.9721 90.7962 26.2216C90.4909 26.4572 90.3378 26.8389 90.3368 27.3667C90.3359 27.8807 90.6946 28.8119 91.413 30.1605C92.1313 31.5092 92.5871 32.3781 92.7805 32.7674C93.3053 33.8239 93.5668 34.8453 93.5651 35.8315C93.5629 37.0677 93.1107 38.074 92.2084 38.8502C91.32 39.6126 90.2659 39.9927 89.0463 39.9905C87.8404 39.9884 86.8917 39.6117 86.2 38.8604C85.5083 38.0952 85.1634 37.2056 85.1652 36.1917C85.1685 34.3165 86.3286 32.7698 88.6454 31.5516C87.7062 29.6887 87.2373 28.3891 87.2386 27.6529C87.2404 26.6251 87.6508 25.7577 88.4698 25.0507C89.3027 24.3299 90.3151 23.9705 91.5071 23.9727C92.7129 23.9748 93.6341 24.282 94.2706 24.8943C94.907 25.5066 95.2244 26.285 95.2228 27.2295C95.2217 27.8546 95.0125 28.5696 94.5953 29.3744L93.036 29.3717ZM87.5746 37.4877C87.9481 37.8912 88.3982 38.0934 88.9249 38.0943C89.4654 38.0953 89.8815 37.9432 90.1731 37.6382C90.4786 37.3192 90.6319 36.8542 90.6329 36.243C90.6339 35.6874 90.4203 35.0064 89.9921 34.2C89.9368 34.0888 89.8332 33.8872 89.6813 33.5953C89.5294 33.2894 89.4189 33.0739 89.3498 32.9488C87.796 33.7517 87.0181 34.7643 87.0159 35.9866C87.0148 36.6116 87.201 37.112 87.5746 37.4877Z" fill="#242424"/>
<path d="M99.8889 25.3835C99.8888 25.4668 99.699 26.9597 99.3196 29.862L102.376 29.8674L102.373 31.4717L99.1089 31.466L99.0456 31.9867C100.665 33.3508 101.473 34.8385 101.47 36.4497C101.468 37.7137 101.141 38.623 100.488 39.1774C99.8496 39.7319 99.0799 40.0083 98.179 40.0067C97.2781 40.0051 96.6201 39.7678 96.2052 39.2948C95.7902 38.8079 95.5834 38.2242 95.5846 37.5436C95.5848 37.3908 95.599 37.2241 95.627 37.0436L96.2813 31.5026L96.1983 31.4608L94.5143 31.4578C94.5006 31.3189 94.4941 31.0966 94.4946 30.7911C94.4952 30.4716 94.5581 30.1592 94.6834 29.8538L96.4714 29.857L97.1467 24.191C97.438 24.0804 97.8261 24.0255 98.3112 24.0264C99.3646 24.0283 99.8905 24.4806 99.8889 25.3835ZM100.077 36.4264C100.079 35.468 99.6648 34.5228 98.8349 33.5907C98.5817 35.6598 98.4548 36.8542 98.4543 37.1736C98.4532 37.7987 98.6536 38.1116 99.0555 38.1123C99.3466 38.1128 99.5894 37.9813 99.7839 37.7177C99.9784 37.4402 100.076 37.0098 100.077 36.4264Z" fill="#242424"/>
<path d="M111.601 30.0921C111.025 34.5915 110.736 36.987 110.736 37.2787C110.735 37.8343 110.935 38.1125 111.337 38.1132C111.698 38.1138 112.086 37.8714 112.503 37.386C112.933 36.8868 113.274 36.1442 113.526 35.1585C113.982 35.6593 114.259 36.0487 114.355 36.3267C114.034 37.6735 113.526 38.6241 112.832 39.1784C112.138 39.7328 111.424 40.0093 110.69 40.008C109.484 40.0059 108.674 39.5392 108.26 38.6078C107.537 39.5371 106.573 40.0008 105.367 39.9986C104.369 39.9969 103.601 39.7455 103.061 39.2445C102.521 38.7435 102.252 38.0902 102.253 37.2845C102.254 37.0901 102.289 36.7498 102.359 36.2638C102.683 33.6808 102.929 31.6255 103.098 30.0979C103.528 29.9459 103.923 29.8702 104.283 29.8708C104.644 29.8714 104.914 29.8858 105.094 29.9139C105.274 29.942 105.447 30.0465 105.613 30.2274C105.779 30.4082 105.862 30.6653 105.861 30.9987L105.166 36.3104C105.138 36.4771 105.124 36.6298 105.123 36.7687C105.122 37.5883 105.496 37.9987 106.244 38C106.937 38.0012 107.513 37.6619 107.971 36.9821C107.972 36.8293 107.986 36.5863 108.014 36.253L108.71 30.7121C108.808 30.4761 109.016 30.282 109.335 30.1298C109.654 29.9637 110.049 29.881 110.52 29.8819C111.005 29.8827 111.366 29.9528 111.601 30.0921Z" fill="#242424"/>
<path d="M120.817 24.8997C120.914 24.6637 121.13 24.4696 121.462 24.3174C121.809 24.1514 122.218 24.0687 122.69 24.0696C123.175 24.0704 123.535 24.1405 123.77 24.2798C123.63 25.363 123.405 27.0642 123.096 29.3833C122.45 34.2298 122.126 36.903 122.125 37.4031C122.124 37.8892 122.332 38.1327 122.748 38.1334C123.108 38.1341 123.483 37.9125 123.872 37.4687C124.261 37.011 124.615 36.2685 124.936 35.2412C125.323 35.6169 125.593 36.0272 125.744 36.4719C125.243 38.1239 124.458 39.1921 123.39 39.6764C122.904 39.9116 122.446 40.0289 122.017 40.0281C120.783 40.0259 119.959 39.58 119.545 38.6903C118.823 39.5919 117.9 40.0417 116.778 40.0397C115.655 40.0377 114.706 39.654 113.931 38.8887C113.17 38.1234 112.791 37.1157 112.793 35.8656C112.796 34.046 113.333 32.5954 114.402 31.5139C115.471 30.4323 116.823 29.893 118.459 29.8959C118.5 29.896 118.542 29.8961 118.584 29.8961C119.152 29.8972 119.685 29.9814 120.184 30.149L120.817 24.8997ZM118.768 31.5216C117.881 31.52 117.173 31.8591 116.645 32.5388C116.131 33.2046 115.825 34.2041 115.725 35.5374C115.711 35.6624 115.704 35.7804 115.704 35.8916C115.703 36.5722 115.861 37.1142 116.179 37.5176C116.511 37.921 116.933 38.1231 117.446 38.124C118.319 38.1256 118.979 37.5086 119.425 36.2732L119.973 31.7946C119.516 31.6132 119.114 31.5222 118.768 31.5216Z" fill="#242424"/>
<path d="M125.846 24.596C126.165 24.2632 126.553 24.0973 127.011 24.0981C127.468 24.0989 127.856 24.2662 128.174 24.6002C128.506 24.9202 128.672 25.3094 128.671 25.7678C128.67 26.2262 128.503 26.6148 128.17 26.9337C127.851 27.2526 127.462 27.4117 127.005 27.4108C126.547 27.41 126.16 27.2496 125.841 26.9296C125.523 26.6095 125.365 26.2203 125.365 25.762C125.366 25.3036 125.526 24.915 125.846 24.596ZM124.982 30.6992C125.121 30.4494 125.385 30.2624 125.773 30.1381C126.162 29.9999 126.543 29.9311 126.917 29.9317C127.305 29.9324 127.645 29.9816 127.936 30.0794C127.388 34.2593 127.114 36.3702 127.114 36.4118C127.044 36.6895 127.009 36.9256 127.008 37.12C127.008 37.3006 127.022 37.4604 127.049 37.5993C127.104 37.9606 127.353 38.1416 127.797 38.1424C128.254 38.1432 128.67 37.8522 129.046 37.2695C129.435 36.6729 129.727 35.9998 129.922 35.25C130.019 35.3058 130.172 35.4727 130.379 35.7509C130.586 36.0291 130.711 36.2376 130.752 36.3766C130.473 37.4873 130 38.3824 129.334 39.0618C128.667 39.7413 127.869 40.0802 126.941 40.0785C126.012 40.0769 125.32 39.8465 124.863 39.3873C124.42 38.9281 124.2 38.3374 124.201 37.6151C124.201 37.4623 124.208 37.3026 124.223 37.1359L124.982 30.6992Z" fill="#242424"/>
<path d="M134.515 29.9244C135.79 29.9266 136.85 30.3383 137.694 31.1593C138.552 31.9803 138.979 32.9812 138.977 34.1618C138.974 35.9536 138.445 37.3903 137.39 38.4719C136.348 39.5396 135.086 40.0721 133.603 40.0695C132.12 40.0669 130.943 39.6411 130.071 38.7923C129.213 37.9435 128.785 36.894 128.788 35.6439C128.791 33.8937 129.327 32.5057 130.396 31.4797C131.479 30.4399 132.852 29.9214 134.515 29.9244ZM134.096 31.6113C133.445 31.6101 132.897 31.9842 132.452 32.7335C132.007 33.4827 131.763 34.4268 131.719 35.5657C131.718 36.3714 131.876 37.0384 132.194 37.5668C132.525 38.0952 133.024 38.36 133.689 38.3611C134.354 38.3623 134.91 37.9952 135.354 37.2598C135.813 36.5245 136.043 35.6845 136.045 34.74C136.047 33.7955 135.889 33.0451 135.571 32.489C135.253 31.905 134.761 31.6125 134.096 31.6113Z" fill="#242424"/>
<path d="M148.553 33.5954C149.646 34.403 150.192 35.3554 150.19 36.4527C150.188 37.55 149.757 38.4313 148.897 39.0965C148.036 39.7617 146.954 40.0931 145.652 40.0908C144.806 40.0893 144.1 39.8797 143.532 39.462C142.978 39.0304 142.702 38.5021 142.703 37.8771C142.704 37.252 142.913 36.7593 143.33 36.3989C143.746 36.0246 144.266 35.7963 144.89 35.7141C144.598 36.1303 144.452 36.5328 144.451 36.9218C144.451 37.2968 144.582 37.6026 144.845 37.8392C145.108 38.0758 145.44 38.1944 145.842 38.1952C146.244 38.1959 146.577 38.0506 146.841 37.7594C147.105 37.4543 147.237 37.1073 147.238 36.7183C147.239 36.0794 146.942 35.5094 146.347 35.0083C145.987 34.7159 145.599 34.4444 145.184 34.1936C144.768 33.929 144.547 33.7897 144.519 33.7758C144.464 33.734 144.409 33.6992 144.353 33.6713C144.103 33.9625 143.742 34.3647 143.27 34.8778C142.798 35.377 142.423 35.7792 142.145 36.0843C141.367 36.9302 140.93 37.6378 140.832 38.2071C140.804 38.3182 140.789 38.5335 140.789 38.8529C140.788 39.1585 140.878 39.4781 141.057 39.8118C141.251 40.1455 141.479 40.396 141.742 40.5631C142.005 40.7303 142.261 40.8627 142.511 40.9603C142.774 41.0719 142.995 41.1487 143.176 41.1907C143.37 41.2327 143.467 41.2607 143.466 41.2746C143.466 41.3718 143.314 41.4826 143.009 41.6071C142.44 41.8145 141.844 41.9176 141.22 41.9165C140.61 41.9154 140.015 41.6921 139.433 41.2466C138.644 40.634 138.251 39.8207 138.253 38.8068C138.254 38.1817 138.414 37.5639 138.734 36.9533C139.304 35.8709 140.637 34.387 142.734 32.5017C142.222 31.9868 141.966 31.4377 141.967 30.8543C141.968 30.2709 142.184 29.7782 142.614 29.3762C143.059 28.9741 143.579 28.7737 144.175 28.7747C144.715 28.7757 145.186 28.9918 145.587 29.4231C145.85 29.7153 145.981 30.0836 145.98 30.5281C145.98 30.9726 145.833 31.4723 145.541 32.0274C147.023 32.6968 148.027 33.2194 148.553 33.5954ZM144.046 31.233C144.379 30.8864 144.546 30.6366 144.546 30.4839C144.547 30.1366 144.394 29.9488 144.09 29.9205C143.743 29.9199 143.569 30.114 143.569 30.503C143.568 30.7391 143.727 30.9824 144.046 31.233Z" fill="#242424"/>
<path d="M59.2815 12.6437C59.6984 12.0194 59.9073 11.4364 59.9083 10.8947C59.9093 10.353 59.7576 9.92213 59.4532 9.60212C59.1489 9.28211 58.7472 9.12166 58.2482 9.12077C57.7493 9.11989 57.3471 9.24419 57.0417 9.49367C56.7364 9.72926 56.5833 10.111 56.5823 10.6388C56.5814 11.1527 56.9401 12.084 57.6585 13.4326C58.3768 14.7812 58.8326 15.6502 59.026 16.0394C59.5508 17.096 59.8123 18.1174 59.8106 19.1036C59.8084 20.3398 59.3562 21.346 58.4539 22.1223C57.5655 22.8847 56.5114 23.2648 55.2918 23.2626C54.0859 23.2605 53.1372 22.8838 52.4455 22.1325C51.7538 21.3673 51.4089 20.4777 51.4107 19.4637C51.414 17.5886 52.5741 16.0419 54.8909 14.8237C53.9517 12.9607 53.4828 11.6612 53.4841 10.925C53.4859 9.89713 53.8963 9.02972 54.7153 8.32278C55.5482 7.60197 56.5606 7.24262 57.7526 7.24473C58.9584 7.24687 59.8796 7.55408 60.5161 8.16638C61.1525 8.77867 61.4699 9.55708 61.4683 10.5016C61.4672 11.1267 61.258 11.8416 60.8408 12.6465L59.2815 12.6437ZM53.8201 20.7598C54.1936 21.1633 54.6437 21.3655 55.1704 21.3664C55.7109 21.3674 56.127 21.2153 56.4186 20.9102C56.7241 20.5913 56.8774 20.1263 56.8784 19.5151C56.8794 18.9595 56.6658 18.2785 56.2376 17.4721C56.1823 17.3609 56.0787 17.1593 55.9268 16.8673C55.7749 16.5615 55.6644 16.346 55.5953 16.2209C54.0415 17.0237 53.2636 18.0363 53.2614 19.2587C53.2603 19.8837 53.4465 20.3841 53.8201 20.7598Z" fill="#242424"/>
<path d="M70.8414 15.6645C70.8388 17.1091 69.9775 18.2118 68.2575 18.9727C68.2987 19.2228 68.3605 19.5215 68.443 19.8689C68.6907 20.8973 69.1056 21.4258 69.6876 21.4546C69.7292 21.4547 69.7708 21.4548 69.8124 21.4548C70.9212 21.4568 71.7476 20.479 72.2916 18.5215C72.5822 18.7859 72.8587 19.1823 73.1211 19.7106C72.9258 20.4603 72.6474 21.0918 72.2862 21.6051C71.9387 22.1184 71.5569 22.4858 71.1407 22.7073C70.4055 23.0949 69.7121 23.2882 69.0607 23.287C67.5361 23.2843 66.4704 22.4282 65.8635 20.7186C65.6291 20.0376 65.471 19.3428 65.3891 18.6343C66.1794 18.4412 66.8037 18.1228 67.2619 17.6792C67.7201 17.2216 67.9496 16.7359 67.9505 16.2219C67.9521 15.333 67.5094 14.8877 66.6223 14.8861C66.1372 14.8853 65.7211 15.072 65.3739 15.4465C65.0268 15.807 64.7973 16.2441 64.6855 16.7578C64.6011 17.4661 64.4605 18.584 64.2638 20.1116C64.0809 21.6253 63.9613 22.639 63.905 23.1529L61.1399 23.148C62.1529 14.6351 62.7651 9.40658 62.9764 7.46234C63.2677 7.35173 63.6628 7.29687 64.1617 7.29776C65.2428 7.29967 65.7828 7.6201 65.7817 8.25904L65.7814 8.38405C65.4998 10.8977 65.24 12.821 65.002 14.154C65.7655 13.447 66.7225 13.0945 67.8729 13.0965C68.7322 13.098 69.4387 13.3215 69.9923 13.767C70.5598 14.2125 70.8428 14.845 70.8414 15.6645Z" fill="#242424"/>
<path d="M73.3312 7.83488C73.6506 7.50208 74.039 7.33609 74.4964 7.3369C74.9537 7.33771 75.3415 7.50508 75.6597 7.83901C75.9918 8.15907 76.1574 8.54828 76.1566 9.00666C76.1558 9.46503 75.9888 9.85366 75.6556 10.1725C75.3362 10.4914 74.9479 10.6505 74.4905 10.6497C74.0331 10.6489 73.6453 10.4884 73.3271 10.1684C73.0089 9.84838 72.8502 9.45917 72.851 9.0008C72.8518 8.54243 73.0119 8.15379 73.3312 7.83488ZM72.468 13.9381C72.6071 13.6883 72.8707 13.5012 73.259 13.3769C73.6474 13.2387 74.0286 13.1699 74.4029 13.1706C74.7909 13.1713 75.1304 13.2205 75.4213 13.3182C74.8734 17.4982 74.5994 19.609 74.5993 19.6507C74.5295 19.9283 74.4944 20.1644 74.4941 20.3589C74.4938 20.5394 74.5073 20.6992 74.5348 20.8382C74.5896 21.1994 74.8388 21.3804 75.2823 21.3812C75.7397 21.382 76.156 21.091 76.5313 20.5083C76.9204 19.9117 77.2127 19.2386 77.408 18.4889C77.5049 18.5446 77.6571 18.7116 77.8645 18.9897C78.0719 19.2679 78.1963 19.4765 78.2376 19.6154C77.9585 20.7262 77.4856 21.6212 76.8191 22.3007C76.1527 22.9801 75.3551 23.319 74.4265 23.3173C73.4978 23.3157 72.8052 23.0853 72.3487 22.6261C71.906 22.1669 71.6852 21.5762 71.6865 20.8539C71.6868 20.7012 71.694 20.5414 71.7082 20.3748L72.468 13.9381Z" fill="#242424"/>
<path d="M82.1461 13.1635C82.9084 13.1648 83.6081 13.2911 84.2452 13.5422C84.6754 13.2791 85.1261 13.1479 85.5973 13.1487C86.0686 13.1496 86.4427 13.2127 86.7196 13.3382L85.9608 19.2124C86.9878 18.4225 87.7653 17.7016 88.2931 17.0497L88.8938 18.3217C88.1023 19.1537 87.0473 20.0408 85.729 20.983L85.1599 25.3365C85.0051 26.6419 84.5737 27.6413 83.8656 28.3345C83.1713 29.0417 82.2698 29.3943 81.161 29.3923C80.5234 29.3912 79.9001 29.1817 79.291 28.7639C78.6542 28.3183 78.3367 27.6024 78.3384 26.6162C78.3406 25.4078 78.9177 24.3046 80.0699 23.3065C79.086 23.2353 78.2412 22.8241 77.5357 22.0727C76.8301 21.3214 76.4784 20.3416 76.4806 19.1331C76.4838 17.3135 77.02 15.863 78.0891 14.7814C79.1583 13.6999 80.5106 13.1606 82.1461 13.1635ZM82.4551 14.7892C81.568 14.7876 80.8606 15.1266 80.3327 15.8063C79.8187 16.4721 79.512 17.4717 79.4126 18.805C79.3985 18.9299 79.3914 19.048 79.3912 19.1591C79.39 19.8397 79.5484 20.3817 79.8665 20.7851C80.1984 21.1885 80.6208 21.3907 81.1336 21.3916C82.0068 21.3931 82.6662 20.7831 83.1119 19.5616L83.6397 15.0413C83.2103 14.8738 82.8154 14.7898 82.4551 14.7892ZM79.9398 26.3065C79.9392 26.6816 80.0426 26.9734 80.2501 27.1822C80.4715 27.4048 80.7208 27.5164 80.998 27.5169C81.7742 27.5182 82.2255 27.0259 82.352 26.04L82.711 22.9153C80.8656 24.0094 79.9419 25.1398 79.9398 26.3065Z" fill="#242424"/>
<path d="M91.4761 18.5346C92.3358 18.3556 92.9739 18.0095 93.3907 17.4963C93.8212 16.9831 94.0369 16.4904 94.0378 16.0181C94.0386 15.532 93.9075 15.2053 93.6445 15.0382C93.3953 14.8572 93.1183 14.7664 92.8134 14.7658C92.1619 14.7647 91.5861 15.1317 91.0858 15.867C90.5994 16.5885 90.3554 17.4562 90.3536 18.4701C90.3518 19.4702 90.5861 20.2207 91.0564 20.7216C91.5407 21.2086 92.1362 21.4527 92.8431 21.454C93.8826 21.4558 94.8812 21.0964 95.8388 20.3759C96.7964 19.6553 97.5743 18.7121 98.1723 17.5464C98.4767 17.8386 98.7533 18.2003 99.002 18.6313C98.5428 19.6722 97.7302 20.6917 96.5641 21.6898C95.9811 22.1749 95.2874 22.5695 94.483 22.8737C93.6924 23.1779 92.8744 23.3292 92.029 23.3277C90.6429 23.3252 89.5487 22.8997 88.7464 22.0509C87.8887 21.1327 87.4611 19.9582 87.4636 18.5275C87.4661 17.0968 88.002 15.8477 89.0711 14.78C90.1541 13.7124 91.444 13.1799 92.9409 13.1826C94.0081 13.1845 94.874 13.4221 95.5384 13.8956C96.2029 14.3551 96.5414 14.9808 96.5538 15.7725C96.5519 16.8421 96.1207 17.7095 95.2602 18.3747C94.4136 19.0399 93.2485 19.5031 91.765 19.7644L91.4761 18.5346Z" fill="#242424"/>
<path d="M103.215 20.889L103.722 16.2436C103.723 15.8686 103.626 15.5559 103.432 15.3055C103.239 15.0552 102.913 14.9296 102.456 14.9288C102.012 14.928 101.631 15.1287 101.311 15.531C101.006 15.9193 100.811 16.4121 100.727 17.0092C100.221 20.8142 99.954 22.8834 99.9257 23.2167L97.119 23.2117L98.2799 13.4004C98.8623 13.2486 99.3059 13.173 99.6109 13.1736C100.539 13.1752 101.024 13.5164 101.064 14.1971C101.745 13.5315 102.556 13.1996 103.499 13.2013C104.455 13.203 105.203 13.4404 105.743 13.9137C106.282 14.3869 106.552 14.9846 106.55 15.7069C106.55 15.9014 106.508 16.2694 106.424 16.811C106.101 18.9217 105.94 20.1507 105.939 20.4979C105.938 21.1369 106.152 21.4567 106.582 21.4575C107.524 21.4591 108.24 20.4742 108.728 18.5027C109.199 19.0036 109.482 19.3999 109.579 19.6918C108.84 22.1351 107.562 23.3552 105.747 23.352C104.887 23.3505 104.25 23.0854 103.835 22.5569C103.421 22.0283 103.214 21.4723 103.215 20.889Z" fill="#242424"/>
<path d="M23.9868 43.6929C34.9448 43.7123 43.8437 34.8448 43.8631 23.8868C43.8826 12.9288 35.0151 4.02985 24.0571 4.01043C13.099 3.99102 4.20008 12.8585 4.18067 23.8165C4.16126 34.7745 13.0287 43.6735 23.9868 43.6929Z" stroke="#242424" stroke-width="2" stroke-linecap="round" stroke-linejoin="round"/>
<path d="M28.6193 15.9233L39.9733 35.6657" stroke="#242424" stroke-width="2" stroke-linecap="round" stroke-linejoin="round"/>
<path d="M19.4527 15.9071L42.2304 15.9474" stroke="#242424" stroke-width="2" stroke-linecap="round" stroke-linejoin="round"/>
<path d="M14.8553 23.8354L26.2791 4.13341" stroke="#242424" stroke-width="2" stroke-linecap="round" stroke-linejoin="round"/>
<path d="M19.4246 31.78L8.07068 12.0377" stroke="#242424" stroke-width="2" stroke-linecap="round" stroke-linejoin="round"/>
<path d="M28.5912 31.7963L5.81348 31.7559" stroke="#242424" stroke-width="2" stroke-linecap="round" stroke-linejoin="round"/>
<path d="M33.1886 23.8679L21.7648 43.5699" stroke="#242424" stroke-width="2" stroke-linecap="round" stroke-linejoin="round"/>
</svg>
