<svg width="152" height="48" viewBox="0 0 152 48" fill="none" xmlns="http://www.w3.org/2000/svg">
<path d="M93.8522 29.3717C94.2691 28.7474 94.478 28.1643 94.479 27.6226C94.4799 27.0809 94.3282 26.6501 94.0239 26.33C93.7195 26.01 93.3179 25.8496 92.8189 25.8487C92.3199 25.8478 91.9178 25.9721 91.6124 26.2216C91.3071 26.4572 91.1539 26.8389 91.153 27.3667C91.1521 27.8807 91.5108 28.8119 92.2291 30.1605C92.9475 31.5092 93.4033 32.3781 93.5967 32.7674C94.1215 33.8239 94.383 34.8453 94.3813 35.8315C94.3791 37.0677 93.9268 38.074 93.0246 38.8502C92.1361 39.6126 91.0821 39.9927 89.8624 39.9905C88.6566 39.9884 87.7078 39.6117 87.0162 38.8604C86.3245 38.0952 85.9796 37.2056 85.9814 36.1917C85.9847 34.3165 87.1448 32.7698 89.4616 31.5516C88.5224 29.6887 88.0534 28.3891 88.0547 27.6529C88.0565 26.6251 88.467 25.7577 89.286 25.0507C90.1189 24.3299 91.1313 23.9705 92.3233 23.9727C93.5291 23.9748 94.4502 24.282 95.0867 24.8943C95.7232 25.5066 96.0406 26.285 96.0389 27.2295C96.0378 27.8546 95.8287 28.5696 95.4114 29.3744L93.8522 29.3717ZM88.3907 37.4877C88.7642 37.8912 89.2143 38.0934 89.741 38.0943C90.2816 38.0953 90.6977 37.9432 90.9893 37.6382C91.2947 37.3192 91.448 36.8542 91.4491 36.243C91.4501 35.6874 91.2365 35.0064 90.8082 34.2C90.753 34.0888 90.6494 33.8872 90.4975 33.5953C90.3455 33.2894 90.235 33.0739 90.166 32.9488C88.6122 33.7517 87.8342 34.7643 87.8321 35.9866C87.831 36.6116 88.0172 37.112 88.3907 37.4877Z" fill="#F8F8F8"/>
<path d="M100.705 25.3835C100.705 25.4668 100.515 26.9597 100.136 29.862L103.192 29.8674L103.189 31.4717L99.925 31.466L99.8618 31.9867C101.481 33.3508 102.289 34.8385 102.286 36.4497C102.284 37.7137 101.957 38.623 101.304 39.1774C100.666 39.7319 99.8961 40.0083 98.9951 40.0067C98.0942 40.0051 97.4363 39.7678 97.0213 39.2948C96.6064 38.8079 96.3995 38.2242 96.4007 37.5436C96.401 37.3908 96.4152 37.2241 96.4432 37.0436L97.0975 31.5026L97.0144 31.4608L95.3304 31.4578C95.3168 31.3189 95.3103 31.0966 95.3108 30.7911C95.3114 30.4716 95.3743 30.1592 95.4996 29.8538L97.2875 29.857L97.9629 24.191C98.2541 24.0804 98.6423 24.0255 99.1274 24.0264C100.181 24.0283 100.707 24.4806 100.705 25.3835ZM100.893 36.4264C100.895 35.468 100.481 34.5228 99.651 33.5907C99.3979 35.6598 99.271 36.8542 99.2704 37.1736C99.2693 37.7987 99.4697 38.1116 99.8717 38.1123C100.163 38.1128 100.406 37.9813 100.6 37.7177C100.795 37.4402 100.892 37.0098 100.893 36.4264Z" fill="#F8F8F8"/>
<path d="M112.417 30.0921C111.841 34.5915 111.553 36.987 111.552 37.2787C111.551 37.8343 111.752 38.1125 112.154 38.1132C112.514 38.1138 112.902 37.8714 113.319 37.386C113.75 36.8868 114.091 36.1442 114.342 35.1585C114.798 35.6593 115.075 36.0487 115.171 36.3267C114.85 37.6735 114.343 38.6241 113.649 39.1784C112.955 39.7328 112.24 40.0093 111.506 40.008C110.3 40.0059 109.49 39.5392 109.076 38.6078C108.353 39.5371 107.389 40.0008 106.183 39.9986C105.185 39.9969 104.417 39.7455 103.877 39.2445C103.337 38.7435 103.068 38.0902 103.07 37.2845C103.07 37.0901 103.105 36.7498 103.175 36.2638C103.499 33.6808 103.745 31.6255 103.914 30.0979C104.344 29.9459 104.739 29.8702 105.099 29.8708C105.46 29.8714 105.73 29.8858 105.91 29.9139C106.09 29.942 106.263 30.0465 106.429 30.2274C106.595 30.4082 106.678 30.6653 106.678 30.9987L105.982 36.3104C105.954 36.4771 105.94 36.6298 105.94 36.7687C105.938 37.5883 106.312 37.9987 107.06 38C107.753 38.0012 108.329 37.6619 108.788 36.9821C108.788 36.8293 108.802 36.5863 108.83 36.253L109.526 30.7121C109.624 30.4761 109.832 30.282 110.151 30.1298C110.47 29.9637 110.865 29.881 111.336 29.8819C111.822 29.8827 112.182 29.9528 112.417 30.0921Z" fill="#F8F8F8"/>
<path d="M121.633 24.8997C121.731 24.6637 121.946 24.4696 122.279 24.3174C122.625 24.1514 123.034 24.0687 123.506 24.0696C123.991 24.0704 124.351 24.1405 124.586 24.2798C124.446 25.363 124.221 27.0642 123.912 29.3833C123.266 34.2298 122.942 36.903 122.942 37.4031C122.941 37.8892 123.148 38.1327 123.564 38.1334C123.924 38.1341 124.299 37.9125 124.688 37.4687C125.077 37.011 125.431 36.2685 125.752 35.2412C126.139 35.6169 126.409 36.0272 126.561 36.4719C126.059 38.1239 125.274 39.1921 124.206 39.6764C123.72 39.9116 123.263 40.0289 122.833 40.0281C121.599 40.0259 120.775 39.58 120.361 38.6903C119.639 39.5919 118.716 40.0417 117.594 40.0397C116.471 40.0377 115.522 39.654 114.748 38.8887C113.987 38.1234 113.607 37.1157 113.609 35.8656C113.613 34.046 114.149 32.5954 115.218 31.5139C116.287 30.4323 117.639 29.893 119.275 29.8959C119.317 29.896 119.358 29.8961 119.4 29.8961C119.968 29.8972 120.501 29.9814 121 30.149L121.633 24.8997ZM119.584 31.5216C118.697 31.52 117.989 31.8591 117.461 32.5388C116.947 33.2046 116.641 34.2041 116.541 35.5374C116.527 35.6624 116.52 35.7804 116.52 35.8916C116.519 36.5722 116.677 37.1142 116.995 37.5176C117.327 37.921 117.75 38.1231 118.262 38.124C119.136 38.1256 119.795 37.5086 120.241 36.2732L120.789 31.7946C120.332 31.6132 119.93 31.5222 119.584 31.5216Z" fill="#F8F8F8"/>
<path d="M126.662 24.596C126.981 24.2632 127.37 24.0973 127.827 24.0981C128.284 24.0989 128.672 24.2662 128.99 24.6002C129.322 24.9202 129.488 25.3094 129.487 25.7678C129.486 26.2262 129.319 26.6148 128.986 26.9337C128.667 27.2526 128.278 27.4117 127.821 27.4108C127.364 27.41 126.976 27.2496 126.658 26.9296C126.339 26.6095 126.181 26.2203 126.182 25.762C126.182 25.3036 126.342 24.915 126.662 24.596ZM125.799 30.6992C125.938 30.4494 126.201 30.2624 126.59 30.1381C126.978 29.9999 127.359 29.9311 127.733 29.9317C128.121 29.9324 128.461 29.9816 128.752 30.0794C128.204 34.2593 127.93 36.3702 127.93 36.4118C127.86 36.6895 127.825 36.9256 127.825 37.12C127.824 37.3006 127.838 37.4604 127.865 37.5993C127.92 37.9606 128.169 38.1416 128.613 38.1424C129.07 38.1432 129.487 37.8522 129.862 37.2695C130.251 36.6729 130.543 35.9998 130.739 35.25C130.835 35.3058 130.988 35.4727 131.195 35.7509C131.402 36.0291 131.527 36.2376 131.568 36.3766C131.289 37.4873 130.816 38.3824 130.15 39.0618C129.483 39.7413 128.686 40.0802 127.757 40.0785C126.828 40.0769 126.136 39.8465 125.679 39.3873C125.236 38.9281 125.016 38.3374 125.017 37.6151C125.017 37.4623 125.025 37.3026 125.039 37.1359L125.799 30.6992Z" fill="#F8F8F8"/>
<path d="M135.331 29.9244C136.606 29.9266 137.666 30.3383 138.51 31.1593C139.368 31.9803 139.796 32.9812 139.794 34.1618C139.79 35.9536 139.261 37.3903 138.206 38.4719C137.164 39.5396 135.902 40.0721 134.419 40.0695C132.936 40.0669 131.759 39.6411 130.887 38.7923C130.029 37.9435 129.601 36.894 129.604 35.6439C129.607 33.8937 130.143 32.5057 131.212 31.4797C132.295 30.4399 133.668 29.9214 135.331 29.9244ZM134.912 31.6113C134.261 31.6101 133.713 31.9842 133.268 32.7335C132.823 33.4827 132.579 34.4268 132.535 35.5657C132.534 36.3714 132.692 37.0384 133.01 37.5668C133.342 38.0952 133.84 38.36 134.505 38.3611C135.171 38.3623 135.726 37.9952 136.171 37.2598C136.629 36.5245 136.859 35.6845 136.861 34.74C136.863 33.7955 136.705 33.0451 136.387 32.489C136.069 31.905 135.578 31.6125 134.912 31.6113Z" fill="#F8F8F8"/>
<path d="M149.369 33.5954C150.463 34.403 151.008 35.3554 151.006 36.4527C151.004 37.55 150.573 38.4313 149.713 39.0965C148.852 39.7617 147.771 40.0931 146.468 40.0908C145.622 40.0893 144.916 39.8797 144.348 39.462C143.795 39.0304 143.518 38.5021 143.519 37.8771C143.521 37.252 143.729 36.7593 144.146 36.3989C144.562 36.0246 145.082 35.7963 145.706 35.7141C145.414 36.1303 145.268 36.5328 145.267 36.9218C145.267 37.2968 145.398 37.6026 145.661 37.8392C145.924 38.0758 146.256 38.1944 146.658 38.1952C147.06 38.1959 147.393 38.0506 147.657 37.7594C147.921 37.4543 148.053 37.1073 148.054 36.7183C148.055 36.0794 147.758 35.5094 147.163 35.0083C146.803 34.7159 146.415 34.4444 146 34.1936C145.585 33.929 145.363 33.7897 145.335 33.7758C145.28 33.734 145.225 33.6992 145.169 33.6713C144.919 33.9625 144.558 34.3647 144.086 34.8778C143.614 35.377 143.239 35.7792 142.961 36.0843C142.184 36.9302 141.746 37.6378 141.648 38.2071C141.62 38.3182 141.606 38.5335 141.605 38.8529C141.604 39.1585 141.694 39.4781 141.874 39.8118C142.067 40.1455 142.295 40.396 142.558 40.5631C142.821 40.7303 143.078 40.8627 143.327 40.9603C143.59 41.0719 143.812 41.1487 143.992 41.1907C144.186 41.2327 144.283 41.2607 144.283 41.2746C144.282 41.3718 144.13 41.4826 143.825 41.6071C143.256 41.8145 142.66 41.9176 142.036 41.9165C141.426 41.9154 140.831 41.6921 140.249 41.2466C139.46 40.634 139.067 39.8207 139.069 38.8068C139.07 38.1817 139.23 37.5639 139.55 36.9533C140.12 35.8709 141.454 34.387 143.55 32.5017C143.038 31.9868 142.782 31.4377 142.783 30.8543C142.784 30.2709 143 29.7782 143.431 29.3762C143.875 28.9741 144.395 28.7737 144.991 28.7747C145.531 28.7757 146.002 28.9918 146.403 29.4231C146.666 29.7153 146.797 30.0836 146.797 30.5281C146.796 30.9726 146.649 31.4723 146.357 32.0274C147.839 32.6968 148.843 33.2194 149.369 33.5954ZM144.862 31.233C145.195 30.8864 145.362 30.6366 145.362 30.4839C145.363 30.1366 145.211 29.9488 144.906 29.9205C144.559 29.9199 144.386 30.114 144.385 30.503C144.384 30.7391 144.543 30.9824 144.862 31.233Z" fill="#F8F8F8"/>
<path d="M60.0977 12.6437C60.5146 12.0194 60.7235 11.4364 60.7245 10.8947C60.7254 10.353 60.5737 9.92213 60.2694 9.60212C59.965 9.28211 59.5634 9.12166 59.0644 9.12077C58.5654 9.11989 58.1633 9.24419 57.8579 9.49367C57.5526 9.72926 57.3994 10.111 57.3985 10.6388C57.3976 11.1527 57.7563 12.084 58.4746 13.4326C59.193 14.7812 59.6488 15.6502 59.8422 16.0394C60.367 17.096 60.6285 18.1174 60.6268 19.1036C60.6246 20.3398 60.1723 21.346 59.27 22.1223C58.3816 22.8847 57.3276 23.2648 56.1079 23.2626C54.9021 23.2605 53.9533 22.8838 53.2617 22.1325C52.57 21.3673 52.2251 20.4777 52.2269 19.4637C52.2302 17.5886 53.3903 16.0419 55.7071 14.8237C54.7679 12.9607 54.2989 11.6612 54.3002 10.925C54.3021 9.89713 54.7125 9.02972 55.5315 8.32278C56.3643 7.60197 57.3768 7.24262 58.5687 7.24473C59.7746 7.24687 60.6957 7.55408 61.3322 8.16638C61.9687 8.77867 62.2861 9.55708 62.2844 10.5016C62.2833 11.1267 62.0742 11.8416 61.6569 12.6465L60.0977 12.6437ZM54.6362 20.7598C55.0097 21.1633 55.4598 21.3655 55.9865 21.3664C56.5271 21.3674 56.9431 21.2153 57.2348 20.9102C57.5402 20.5913 57.6935 20.1263 57.6946 19.5151C57.6956 18.9595 57.482 18.2785 57.0537 17.4721C56.9985 17.3609 56.8949 17.1593 56.7429 16.8673C56.591 16.5615 56.4805 16.346 56.4115 16.2209C54.8577 17.0237 54.0797 18.0363 54.0776 19.2587C54.0765 19.8837 54.2627 20.3841 54.6362 20.7598Z" fill="#F8F8F8"/>
<path d="M71.6575 15.6645C71.655 17.1091 70.7937 18.2118 69.0737 18.9727C69.1148 19.2228 69.1767 19.5215 69.2592 19.8689C69.5069 20.8973 69.9217 21.4258 70.5038 21.4546C70.5454 21.4547 70.587 21.4548 70.6285 21.4548C71.7374 21.4568 72.5638 20.479 73.1078 18.5215C73.3984 18.7859 73.6749 19.1823 73.9373 19.7106C73.7419 20.4603 73.4636 21.0918 73.1023 21.6051C72.7549 22.1184 72.3731 22.4858 71.9569 22.7073C71.2216 23.0949 70.5283 23.2882 69.8769 23.287C68.3522 23.2843 67.2865 22.4282 66.6797 20.7186C66.4453 20.0376 66.2871 19.3428 66.2052 18.6343C66.9956 18.4412 67.6199 18.1228 68.078 17.6792C68.5362 17.2216 68.7658 16.7359 68.7667 16.2219C68.7683 15.333 68.3255 14.8877 67.4385 14.8861C66.9534 14.8853 66.5372 15.072 66.1901 15.4465C65.8429 15.807 65.6135 16.2441 65.5017 16.7578C65.4173 17.4661 65.2767 18.584 65.0799 20.1116C64.8971 21.6253 64.7775 22.639 64.7211 23.1529L61.956 23.148C62.969 14.6351 63.5812 9.40658 63.7926 7.46234C64.0838 7.35173 64.4789 7.29687 64.9779 7.29776C66.059 7.29967 66.599 7.6201 66.5978 8.25904L66.5976 8.38405C66.316 10.8977 66.0561 12.821 65.8181 14.154C66.5817 13.447 67.5387 13.0945 68.6891 13.0965C69.5484 13.098 70.2549 13.3215 70.8085 13.767C71.376 14.2125 71.659 14.845 71.6575 15.6645Z" fill="#F8F8F8"/>
<path d="M74.1474 7.83488C74.4668 7.50208 74.8551 7.33609 75.3125 7.3369C75.7699 7.33771 76.1577 7.50508 76.4759 7.83901C76.808 8.15907 76.9736 8.54828 76.9728 9.00666C76.972 9.46503 76.805 9.85366 76.4718 10.1725C76.1524 10.4914 75.764 10.6505 75.3067 10.6497C74.8493 10.6489 74.4615 10.4884 74.1433 10.1684C73.825 9.84838 73.6663 9.45917 73.6671 9.0008C73.668 8.54243 73.828 8.15379 74.1474 7.83488ZM73.2842 13.9381C73.4232 13.6883 73.6869 13.5012 74.0752 13.3769C74.4635 13.2387 74.8448 13.1699 75.219 13.1706C75.6071 13.1713 75.9466 13.2205 76.2375 13.3182C75.6895 17.4982 75.4155 19.609 75.4154 19.6507C75.3457 19.9283 75.3106 20.1644 75.3102 20.3589C75.3099 20.5394 75.3235 20.6992 75.351 20.8382C75.4058 21.1994 75.6549 21.3804 76.0985 21.3812C76.5558 21.382 76.9722 21.091 77.3474 20.5083C77.7366 19.9117 78.0288 19.2386 78.2242 18.4889C78.3211 18.5446 78.4733 18.7116 78.6807 18.9897C78.8881 19.2679 79.0125 19.4765 79.0538 19.6154C78.7746 20.7262 78.3018 21.6212 77.6353 22.3007C76.9688 22.9801 76.1713 23.319 75.2426 23.3173C74.314 23.3157 73.6214 23.0853 73.1648 22.6261C72.7221 22.1669 72.5014 21.5762 72.5027 20.8539C72.503 20.7012 72.5102 20.5414 72.5243 20.3748L73.2842 13.9381Z" fill="#F8F8F8"/>
<path d="M82.9623 13.1635C83.7246 13.1648 84.4243 13.2911 85.0614 13.5422C85.4915 13.2791 85.9422 13.1479 86.4135 13.1487C86.8847 13.1496 87.2588 13.2127 87.5358 13.3382L86.777 19.2124C87.804 18.4225 88.5814 17.7016 89.1093 17.0497L89.71 18.3217C88.9185 19.1537 87.8635 20.0408 86.5451 20.983L85.9761 25.3365C85.8213 26.6419 85.3899 27.6413 84.6818 28.3345C83.9875 29.0417 83.086 29.3943 81.9772 29.3923C81.3396 29.3912 80.7163 29.1817 80.1072 28.7639C79.4704 28.3183 79.1529 27.6024 79.1546 26.6162C79.1568 25.4078 79.7339 24.3046 80.8861 23.3065C79.9021 23.2353 79.0574 22.8241 78.3518 22.0727C77.6463 21.3214 77.2946 20.3416 77.2967 19.1331C77.3 17.3135 77.8362 15.863 78.9053 14.7814C79.9745 13.6999 81.3268 13.1606 82.9623 13.1635ZM83.2712 14.7892C82.3842 14.7876 81.6767 15.1266 81.1488 15.8063C80.6348 16.4721 80.3281 17.4717 80.2288 18.805C80.2147 18.9299 80.2075 19.048 80.2073 19.1591C80.2061 19.8397 80.3646 20.3817 80.6826 20.7851C81.0146 21.1885 81.4369 21.3907 81.9498 21.3916C82.8229 21.3931 83.4824 20.7831 83.9281 19.5616L84.4558 15.0413C84.0265 14.8738 83.6316 14.7898 83.2712 14.7892ZM80.756 26.3065C80.7553 26.6816 80.8588 26.9734 81.0663 27.1822C81.2877 27.4048 81.537 27.5164 81.8142 27.5169C82.5903 27.5182 83.0417 27.0259 83.1681 26.04L83.5271 22.9153C81.6818 24.0094 80.7581 25.1398 80.756 26.3065Z" fill="#F8F8F8"/>
<path d="M92.2923 18.5346C93.1519 18.3556 93.7901 18.0095 94.2068 17.4963C94.6374 16.9831 94.8531 16.4904 94.8539 16.0181C94.8548 15.532 94.7237 15.2053 94.4607 15.0382C94.2115 14.8572 93.9345 14.7664 93.6295 14.7658C92.9781 14.7647 92.4023 15.1317 91.902 15.867C91.4156 16.5885 91.1715 17.4562 91.1697 18.4701C91.1679 19.4702 91.4022 20.2207 91.8726 20.7216C92.3568 21.2086 92.9524 21.4527 93.6593 21.454C94.6988 21.4558 95.6973 21.0964 96.655 20.3759C97.6126 19.6553 98.3904 18.7121 98.9885 17.5464C99.2929 17.8386 99.5695 18.2003 99.8182 18.6313C99.3589 19.6722 98.5463 20.6917 97.3803 21.6898C96.7973 22.1749 96.1036 22.5695 95.2992 22.8737C94.5086 23.1779 93.6906 23.3292 92.8451 23.3277C91.4591 23.3252 90.3649 22.8997 89.5625 22.0509C88.7048 21.1327 88.2772 19.9582 88.2798 18.5275C88.2823 17.0968 88.8181 15.8477 89.8873 14.78C90.9702 13.7124 92.2602 13.1799 93.7571 13.1826C94.8243 13.1845 95.6901 13.4221 96.3546 13.8956C97.0191 14.3551 97.3575 14.9808 97.37 15.7725C97.3681 16.8421 96.9369 17.7095 96.0764 18.3747C95.2297 19.0399 94.0647 19.5031 92.5812 19.7644L92.2923 18.5346Z" fill="#F8F8F8"/>
<path d="M104.031 20.889L104.538 16.2436C104.539 15.8686 104.442 15.5559 104.249 15.3055C104.055 15.0552 103.73 14.9296 103.272 14.9288C102.829 14.928 102.447 15.1287 102.128 15.531C101.822 15.9193 101.627 16.4121 101.543 17.0092C101.037 20.8142 100.77 22.8834 100.742 23.2167L97.9352 23.2117L99.096 13.4004C99.6784 13.2486 100.122 13.173 100.427 13.1736C101.356 13.1752 101.84 13.5164 101.881 14.1971C102.561 13.5315 103.372 13.1996 104.315 13.2013C105.271 13.203 106.019 13.4404 106.559 13.9137C107.099 14.3869 107.368 14.9846 107.366 15.7069C107.366 15.9014 107.324 16.2694 107.24 16.811C106.917 18.9217 106.756 20.1507 106.755 20.4979C106.754 21.1369 106.968 21.4567 107.398 21.4575C108.34 21.4591 109.056 20.4742 109.544 18.5027C110.015 19.0036 110.298 19.3999 110.395 19.6918C109.656 22.1351 108.379 23.3552 106.563 23.352C105.704 23.3505 105.066 23.0854 104.652 22.5569C104.237 22.0283 104.03 21.4723 104.031 20.889Z" fill="#F8F8F8"/>
<path d="M24.8029 43.6929C35.7609 43.7123 44.6599 34.8448 44.6793 23.8868C44.6987 12.9288 35.8312 4.02985 24.8732 4.01043C13.9152 3.99102 5.01624 12.8585 4.99683 23.8165C4.97742 34.7745 13.8449 43.6735 24.8029 43.6929Z" stroke="#F8F8F8" stroke-width="2" stroke-linecap="round" stroke-linejoin="round"/>
<path d="M29.4355 15.9233L40.7894 35.6657" stroke="#F8F8F8" stroke-width="2" stroke-linecap="round" stroke-linejoin="round"/>
<path d="M20.2689 15.9071L43.0466 15.9474" stroke="#F8F8F8" stroke-width="2" stroke-linecap="round" stroke-linejoin="round"/>
<path d="M15.6715 23.8354L27.0953 4.13341" stroke="#F8F8F8" stroke-width="2" stroke-linecap="round" stroke-linejoin="round"/>
<path d="M20.2408 31.78L8.88684 12.0377" stroke="#F8F8F8" stroke-width="2" stroke-linecap="round" stroke-linejoin="round"/>
<path d="M29.4074 31.7963L6.62964 31.7559" stroke="#F8F8F8" stroke-width="2" stroke-linecap="round" stroke-linejoin="round"/>
<path d="M34.0048 23.8679L22.581 43.5699" stroke="#F8F8F8" stroke-width="2" stroke-linecap="round" stroke-linejoin="round"/>
</svg>
