<svg width="592" height="592" viewBox="0 0 592 592" fill="none" xmlns="http://www.w3.org/2000/svg">
<path d="M348.609 295.825C351.885 290.93 353.526 286.36 353.534 282.113C353.542 277.866 352.35 274.488 349.958 271.979C347.567 269.47 344.411 268.212 340.491 268.205C336.571 268.198 333.411 269.173 331.012 271.129C328.613 272.976 327.41 275.968 327.402 280.106C327.395 284.135 330.214 291.436 335.857 302.009C341.501 312.582 345.083 319.395 346.602 322.447C350.725 330.73 352.78 338.738 352.767 346.469C352.749 356.161 349.196 364.05 342.107 370.136C335.127 376.113 326.846 379.093 317.263 379.076C307.789 379.059 300.335 376.105 294.9 370.215C289.466 364.216 286.756 357.242 286.77 349.293C286.796 334.592 295.91 322.466 314.113 312.915C306.734 298.31 303.05 288.121 303.06 282.35C303.074 274.292 306.299 267.491 312.733 261.949C319.277 256.298 327.232 253.481 336.597 253.497C346.071 253.514 353.308 255.923 358.309 260.723C363.31 265.523 365.804 271.626 365.79 279.031C365.782 283.931 364.138 289.536 360.86 295.847L348.609 295.825ZM305.7 359.454C308.635 362.617 312.171 364.202 316.309 364.21C320.556 364.217 323.825 363.025 326.116 360.633C328.516 358.133 329.721 354.487 329.729 349.696C329.737 345.34 328.058 340.001 324.694 333.679C324.26 332.807 323.446 331.226 322.252 328.937C321.058 326.54 320.19 324.85 319.648 323.869C307.44 330.163 301.328 338.102 301.311 347.685C301.302 352.585 302.765 356.508 305.7 359.454Z" fill="#086788" fill-opacity="0.1"/>
<path d="M280.074 256.501C283.349 251.606 284.991 247.035 284.999 242.788C285.006 238.541 283.814 235.163 281.423 232.655C279.032 230.146 275.876 228.888 271.956 228.881C268.035 228.874 264.876 229.848 262.476 231.804C260.077 233.651 258.874 236.644 258.867 240.782C258.86 244.811 261.678 252.112 267.322 262.685C272.966 273.258 276.547 280.071 278.067 283.122C282.19 291.406 284.245 299.413 284.231 307.145C284.214 316.837 280.661 324.726 273.572 330.811C266.592 336.788 258.31 339.768 248.727 339.751C239.253 339.735 231.799 336.781 226.365 330.891C220.931 324.892 218.22 317.918 218.235 309.968C218.261 295.267 227.375 283.141 245.578 273.591C238.199 258.985 234.514 248.797 234.524 243.026C234.539 234.967 237.763 228.167 244.198 222.625C250.742 216.973 258.696 214.156 268.061 214.173C277.535 214.19 284.773 216.598 289.773 221.398C294.774 226.199 297.268 232.301 297.255 239.706C297.246 244.607 295.603 250.212 292.325 256.522L280.074 256.501ZM237.165 320.129C240.099 323.293 243.636 324.878 247.774 324.885C252.021 324.893 255.29 323.701 257.581 321.309C259.981 318.809 261.185 315.163 261.194 310.371C261.201 306.015 259.523 300.676 256.158 294.354C255.724 293.482 254.91 291.902 253.717 289.613C252.523 287.215 251.655 285.526 251.112 284.545C238.904 290.839 232.792 298.778 232.775 308.361C232.766 313.261 234.23 317.184 237.165 320.129Z" fill="#086788" fill-opacity="0.1"/>
<path d="M295.087 541.355C430.857 541.596 541.115 431.728 541.355 295.958C541.596 160.188 431.728 49.93 295.958 49.6895C160.188 49.4489 49.93 159.317 49.6895 295.087C49.449 430.857 159.317 541.115 295.087 541.355Z" stroke="#086788" stroke-opacity="0.1" stroke-width="3" stroke-linecap="round" stroke-linejoin="round"/>
<path d="M352.484 197.29L493.16 441.899" stroke="#086788" stroke-opacity="0.1" stroke-width="3" stroke-linecap="round" stroke-linejoin="round"/>
<path d="M238.909 197.088L521.127 197.588" stroke="#086788" stroke-opacity="0.1" stroke-width="3" stroke-linecap="round" stroke-linejoin="round"/>
<path d="M181.947 295.322L323.489 51.213" stroke="#086788" stroke-opacity="0.1" stroke-width="3" stroke-linecap="round" stroke-linejoin="round"/>
<path d="M238.561 393.756L97.8853 149.147" stroke="#086788" stroke-opacity="0.1" stroke-width="3" stroke-linecap="round" stroke-linejoin="round"/>
<path d="M352.137 393.956L69.9191 393.456" stroke="#086788" stroke-opacity="0.1" stroke-width="3" stroke-linecap="round" stroke-linejoin="round"/>
<path d="M409.098 295.723L267.556 539.833" stroke="#086788" stroke-opacity="0.1" stroke-width="3" stroke-linecap="round" stroke-linejoin="round"/>
</svg>
