<svg width="253" height="81" viewBox="0 0 253 81" fill="none" xmlns="http://www.w3.org/2000/svg">
<path d="M156.873 49.3445C157.573 48.2956 157.924 47.3161 157.926 46.4061C157.927 45.496 157.673 44.7721 157.161 44.2345C156.65 43.6969 155.975 43.4273 155.137 43.4259C154.299 43.4244 153.623 43.6332 153.11 44.0523C152.597 44.4481 152.34 45.0894 152.338 45.9761C152.337 46.8395 152.939 48.4041 154.146 50.6697C155.353 52.9354 156.119 54.3952 156.443 55.0492C157.325 56.8242 157.765 58.5402 157.762 60.197C157.758 62.2738 156.998 63.9643 155.482 65.2684C153.99 66.5492 152.219 67.1878 150.17 67.1841C148.144 67.1806 146.55 66.5477 145.388 65.2855C144.226 64 143.647 62.5055 143.65 60.802C143.655 57.6518 145.604 55.0533 149.497 53.0067C147.919 49.877 147.131 47.6937 147.133 46.4569C147.136 44.7301 147.826 43.2729 149.202 42.0852C150.601 40.8743 152.302 40.2706 154.304 40.2741C156.33 40.2777 157.877 40.7938 158.947 41.8225C160.016 42.8511 160.549 44.1588 160.546 45.7456C160.545 46.7957 160.193 47.9969 159.492 49.3491L156.873 49.3445ZM147.698 62.9794C148.325 63.6572 149.081 63.9969 149.966 63.9985C150.874 64.0001 151.573 63.7447 152.063 63.2321C152.576 62.6963 152.834 61.9151 152.836 60.8883C152.837 59.9549 152.478 58.8108 151.759 57.4561C151.666 57.2693 151.492 56.9306 151.237 56.4401C150.982 55.9263 150.796 55.5642 150.68 55.354C148.07 56.7028 146.763 58.404 146.759 60.4575C146.757 61.5076 147.07 62.3482 147.698 62.9794Z" fill="#242424"/>
<path d="M168.386 42.6443C168.385 42.7843 168.067 45.2923 167.429 50.1682L172.564 50.1773L172.559 52.8725L167.075 52.8628L166.969 53.7377C169.689 56.0294 171.047 58.5287 171.042 61.2356C171.038 63.3591 170.488 64.8866 169.392 65.8181C168.32 66.7496 167.026 67.214 165.513 67.2113C163.999 67.2086 162.894 66.81 162.197 66.0153C161.5 65.1974 161.152 64.2167 161.154 63.0732C161.155 62.8166 161.179 62.5366 161.226 62.2333L162.325 52.9244L162.185 52.8542L159.356 52.8492C159.333 52.6158 159.322 52.2424 159.323 51.729C159.324 51.1923 159.43 50.6674 159.64 50.1544L162.644 50.1597L163.779 40.6409C164.268 40.4551 164.92 40.3629 165.735 40.3644C167.505 40.3675 168.388 41.1275 168.386 42.6443ZM168.702 61.1964C168.705 59.5863 168.009 57.9983 166.615 56.4323C166.189 59.9085 165.976 61.915 165.975 62.4517C165.974 63.5018 166.31 64.0275 166.986 64.0286C167.475 64.0295 167.882 63.8086 168.209 63.3658C168.536 62.8996 168.7 62.1765 168.702 61.1964Z" fill="#242424"/>
<path d="M188.062 50.5548C187.094 58.1138 186.609 62.1382 186.609 62.6283C186.607 63.5617 186.944 64.029 187.619 64.0302C188.224 64.0313 188.877 63.6241 189.577 62.8086C190.3 61.9698 190.873 60.7223 191.295 59.0663C192.062 59.9077 192.527 60.5619 192.689 61.0289C192.149 63.2915 191.297 64.8885 190.131 65.8198C188.965 66.7512 187.765 67.2157 186.531 67.2136C184.505 67.21 183.144 66.4258 182.448 64.8611C181.235 66.4224 179.615 67.2013 177.589 67.1977C175.913 67.1947 174.621 66.7724 173.714 65.9307C172.808 65.0891 172.356 63.9915 172.358 62.638C172.359 62.3114 172.418 61.7397 172.536 60.9232C173.079 56.5838 173.493 53.1309 173.777 50.5645C174.499 50.3091 175.163 50.1819 175.768 50.183C176.374 50.1841 176.828 50.2082 177.13 50.2554C177.433 50.3026 177.724 50.4782 178.002 50.782C178.281 51.0859 178.42 51.5178 178.419 52.0779L177.251 61.0016C177.204 61.2815 177.18 61.5382 177.18 61.7715C177.177 63.1483 177.805 63.8378 179.062 63.84C180.226 63.8421 181.194 63.2721 181.964 62.13C181.965 61.8733 181.989 61.465 182.036 60.905L183.205 51.5963C183.369 51.1999 183.719 50.8738 184.255 50.6181C184.791 50.339 185.455 50.2002 186.246 50.2016C187.061 50.203 187.667 50.3208 188.062 50.5548Z" fill="#242424"/>
<path d="M203.545 41.8315C203.708 41.4351 204.07 41.109 204.629 40.8533C205.212 40.5743 205.899 40.4355 206.691 40.4369C207.506 40.4384 208.111 40.5561 208.506 40.7902C208.27 42.6099 207.893 45.4678 207.373 49.3639C206.288 57.506 205.744 61.9971 205.743 62.8372C205.741 63.6539 206.09 64.0629 206.788 64.0642C207.394 64.0652 208.023 63.693 208.677 62.9474C209.33 62.1785 209.926 60.9311 210.464 59.2053C211.115 59.8365 211.568 60.5257 211.823 61.2728C210.98 64.0483 209.661 65.8427 207.867 66.6563C207.051 67.0516 206.282 67.2485 205.56 67.2473C203.488 67.2436 202.104 66.4944 201.408 64.9997C200.194 66.5144 198.645 67.27 196.759 67.2667C194.872 67.2633 193.279 66.6188 191.977 65.333C190.699 64.0473 190.061 62.3544 190.065 60.2542C190.07 57.1973 190.971 54.7603 192.767 52.9433C194.563 51.1264 196.835 50.2203 199.583 50.2252C199.653 50.2253 199.723 50.2254 199.793 50.2256C200.747 50.2272 201.643 50.3688 202.481 50.6504L203.545 41.8315ZM200.102 52.9563C198.612 52.9537 197.423 53.5233 196.536 54.6652C195.673 55.7837 195.158 57.463 194.991 59.7029C194.967 59.9129 194.955 60.1112 194.955 60.2979C194.953 61.4413 195.219 62.3519 195.753 63.0295C196.311 63.7072 197.02 64.0469 197.882 64.0484C199.349 64.051 200.457 63.0145 201.206 60.939L202.127 53.415C201.359 53.1103 200.684 52.9574 200.102 52.9563Z" fill="#242424"/>
<path d="M211.993 41.3214C212.529 40.7623 213.182 40.4834 213.95 40.4848C214.719 40.4861 215.37 40.7673 215.905 41.3283C216.463 41.866 216.741 42.5199 216.74 43.29C216.738 44.06 216.458 44.7129 215.898 45.2487C215.361 45.7844 214.709 46.0516 213.94 46.0503C213.172 46.0489 212.521 45.7794 211.986 45.2417C211.451 44.7041 211.185 44.0502 211.186 43.2801C211.187 42.5101 211.456 41.8572 211.993 41.3214ZM210.543 51.5747C210.776 51.1551 211.219 50.8409 211.872 50.632C212.524 50.3998 213.165 50.2843 213.793 50.2854C214.445 50.2865 215.016 50.3692 215.504 50.5334C214.584 57.5557 214.123 61.1019 214.123 61.1719C214.006 61.6384 213.947 62.035 213.946 62.3617C213.946 62.6651 213.969 62.9335 214.015 63.1669C214.107 63.7738 214.526 64.0779 215.271 64.0792C216.039 64.0806 216.739 63.5918 217.369 62.6128C218.023 61.6105 218.514 60.4796 218.842 59.2201C219.005 59.3137 219.26 59.5942 219.609 60.0615C219.957 60.5288 220.166 60.8792 220.236 61.1127C219.767 62.9787 218.972 64.4825 217.853 65.6239C216.733 66.7653 215.393 67.3347 213.833 67.3319C212.273 67.3292 211.109 66.9421 210.342 66.1706C209.598 65.3993 209.228 64.4069 209.23 63.1934C209.23 62.9367 209.242 62.6684 209.266 62.3884L210.543 51.5747Z" fill="#242424"/>
<path d="M226.557 50.273C228.7 50.2768 230.48 50.9683 231.898 52.3476C233.339 53.727 234.058 55.4084 234.054 57.3919C234.049 60.4021 233.16 62.8158 231.387 64.6328C229.637 66.4265 227.517 67.3212 225.025 67.3168C222.534 67.3123 220.556 66.5971 219.091 65.1711C217.65 63.745 216.932 61.9819 216.935 59.8818C216.94 56.9415 217.841 54.6096 219.637 52.8859C221.456 51.139 223.763 50.268 226.557 50.273ZM225.854 53.107C224.759 53.105 223.839 53.7335 223.091 54.9922C222.344 56.251 221.934 57.8371 221.86 59.7505C221.858 61.1039 222.124 62.2245 222.658 63.1122C223.215 63.9999 224.052 64.4448 225.17 64.4468C226.288 64.4487 227.22 63.832 227.968 62.5966C228.738 61.3611 229.125 59.95 229.128 58.3632C229.13 56.7764 228.865 55.5159 228.331 54.5815C227.797 53.6005 226.971 53.109 225.854 53.107Z" fill="#242424"/>
<path d="M250.141 56.4403C251.978 57.797 252.895 59.3971 252.892 61.2406C252.889 63.0841 252.164 64.5646 250.719 65.6821C249.273 66.7997 247.456 67.3565 245.267 67.3526C243.846 67.3501 242.66 66.998 241.706 66.2962C240.776 65.5712 240.312 64.6836 240.314 63.6335C240.316 62.5834 240.666 61.7556 241.366 61.1502C242.066 60.5213 242.939 60.1379 243.988 59.9997C243.497 60.6989 243.252 61.3752 243.251 62.0286C243.249 62.6586 243.47 63.1724 243.911 63.5699C244.353 63.9674 244.912 64.1667 245.587 64.1679C246.262 64.1691 246.821 63.9251 247.265 63.4358C247.708 62.9232 247.93 62.3402 247.931 61.6868C247.933 60.6134 247.434 59.6558 246.435 58.8139C245.83 58.3228 245.179 57.8666 244.481 57.4454C243.783 57.0007 243.411 56.7667 243.365 56.7433C243.272 56.6731 243.179 56.6146 243.086 56.5678C242.666 57.0571 242.059 57.7328 241.266 58.5948C240.473 59.4334 239.843 60.109 239.376 60.6216C238.07 62.0427 237.334 63.2315 237.169 64.188C237.122 64.3746 237.098 64.7363 237.097 65.273C237.097 65.7863 237.247 66.3233 237.549 66.8839C237.874 67.4445 238.257 67.8652 238.699 68.146C239.141 68.4269 239.571 68.6493 239.99 68.8134C240.432 69.0009 240.805 69.1299 241.107 69.2004C241.433 69.271 241.596 69.318 241.596 69.3413C241.596 69.5046 241.339 69.6909 240.827 69.9C239.871 70.2483 238.87 70.4216 237.822 70.4197C236.797 70.4179 235.797 70.0427 234.82 69.2943C233.495 68.2652 232.833 66.8989 232.836 65.1954C232.838 64.1453 233.108 63.1074 233.645 62.0816C234.603 60.2631 236.843 57.7702 240.365 54.6028C239.505 53.7379 239.076 52.8154 239.077 51.8353C239.079 50.8552 239.441 50.0274 240.164 49.352C240.911 48.6766 241.785 48.3398 242.786 48.3416C243.694 48.3432 244.485 48.7063 245.159 49.4309C245.6 49.9217 245.821 50.5405 245.819 51.2872C245.818 52.0339 245.572 52.8736 245.081 53.8061C247.571 54.9306 249.257 55.8087 250.141 56.4403ZM242.569 52.4715C243.129 51.8891 243.409 51.4696 243.409 51.2129C243.41 50.6295 243.155 50.314 242.643 50.2665C242.061 50.2654 241.769 50.5916 241.768 51.245C241.767 51.6417 242.034 52.0505 242.569 52.4715Z" fill="#242424"/>
<path d="M100.165 21.2415C100.866 20.1927 101.217 19.2132 101.218 18.3031C101.22 17.3931 100.965 16.6692 100.454 16.1316C99.9423 15.594 99.2675 15.3244 98.4293 15.3229C97.591 15.3215 96.9154 15.5303 96.4023 15.9494C95.8894 16.3452 95.6321 16.9865 95.6305 17.8732C95.629 18.7366 96.2316 20.3011 97.4384 22.5668C98.6453 24.8325 99.4111 26.2923 99.7359 26.9463C100.618 28.7213 101.057 30.4372 101.054 32.0941C101.05 34.1709 100.291 35.8614 98.7748 37.1655C97.2822 38.4463 95.5114 39.0849 93.4624 39.0812C91.4366 39.0776 89.8427 38.4448 88.6807 37.1826C87.5187 35.8971 86.9392 34.4026 86.9422 32.6991C86.9478 29.5488 88.8967 26.9504 92.7889 24.9038C91.2111 21.774 90.4233 19.5908 90.4255 18.354C90.4285 16.6272 91.118 15.17 92.4939 13.9823C93.8932 12.7713 95.5941 12.1676 97.5966 12.1712C99.6224 12.1748 101.17 12.6909 102.239 13.7195C103.308 14.7482 103.842 16.0559 103.839 17.6427C103.837 18.6928 103.486 19.894 102.785 21.2462L100.165 21.2415ZM90.99 34.8765C91.6175 35.5543 92.3736 35.894 93.2584 35.8956C94.1666 35.8972 94.8656 35.6417 95.3555 35.1292C95.8687 34.5934 96.1262 33.8121 96.128 32.7854C96.1297 31.852 95.7708 30.7079 95.0513 29.3532C94.9585 29.1663 94.7845 28.8277 94.5292 28.3372C94.274 27.8233 94.0884 27.4613 93.9723 27.2511C91.362 28.5999 90.055 30.3011 90.0514 32.3546C90.0495 33.4047 90.3624 34.2453 90.99 34.8765Z" fill="#242424"/>
<path d="M119.586 26.3164C119.581 28.7432 118.134 30.5958 115.245 31.8742C115.314 32.2943 115.418 32.7962 115.557 33.3799C115.973 35.1074 116.67 35.9954 117.647 36.0438C117.717 36.0439 117.787 36.044 117.857 36.0442C119.72 36.0475 121.108 34.4048 122.022 31.1161C122.51 31.5604 122.975 32.2262 123.416 33.1138C123.088 34.3733 122.62 35.4342 122.013 36.2966C121.429 37.1589 120.788 37.7762 120.089 38.1483C118.853 38.7995 117.689 39.1241 116.594 39.1222C114.033 39.1177 112.242 37.6794 111.223 34.8073C110.829 33.6632 110.563 32.4959 110.426 31.3056C111.754 30.9812 112.802 30.4464 113.572 29.701C114.342 28.9323 114.728 28.1163 114.729 27.2529C114.732 25.7594 113.988 25.0113 112.498 25.0087C111.683 25.0073 110.984 25.3211 110.4 25.9501C109.817 26.5558 109.432 27.2901 109.244 28.1532C109.102 29.3431 108.866 31.2212 108.535 33.7875C108.228 36.3305 108.027 38.0336 107.933 38.8968L103.287 38.8886C104.989 24.587 106.018 15.8031 106.373 12.5368C106.862 12.3509 107.526 12.2588 108.364 12.2603C110.18 12.2635 111.087 12.8018 111.085 13.8752L111.085 14.0852C110.612 18.3081 110.175 21.5393 109.776 23.7788C111.058 22.5909 112.666 21.9987 114.599 22.0022C116.042 22.0047 117.229 22.3802 118.159 23.1286C119.113 23.877 119.588 24.9396 119.586 26.3164Z" fill="#242424"/>
<path d="M123.769 13.1626C124.305 12.6035 124.958 12.3247 125.726 12.326C126.495 12.3274 127.146 12.6086 127.681 13.1696C128.238 13.7073 128.517 14.3612 128.515 15.1312C128.514 15.9013 128.233 16.5542 127.674 17.0899C127.137 17.6257 126.485 17.8929 125.716 17.8915C124.948 17.8901 124.296 17.6206 123.762 17.083C123.227 16.5453 122.961 15.8914 122.962 15.1214C122.963 14.3513 123.232 13.6984 123.769 13.1626ZM122.318 23.416C122.552 22.9963 122.995 22.6821 123.647 22.4732C124.3 22.241 124.94 22.1255 125.569 22.1266C126.221 22.1278 126.791 22.2104 127.28 22.3747C126.359 29.397 125.899 32.9431 125.899 33.0131C125.782 33.4796 125.723 33.8762 125.722 34.2029C125.722 34.5063 125.745 34.7747 125.791 35.0081C125.883 35.615 126.301 35.9191 127.046 35.9204C127.815 35.9218 128.514 35.433 129.145 34.454C129.799 33.4518 130.289 32.3209 130.618 31.0613C130.781 31.155 131.036 31.4354 131.385 31.9028C131.733 32.3701 131.942 32.7205 132.011 32.954C131.542 34.82 130.748 36.3237 129.628 37.4651C128.509 38.6066 127.169 39.1759 125.609 39.1732C124.049 39.1704 122.885 38.7833 122.118 38.0119C121.374 37.2405 121.003 36.2481 121.006 35.0347C121.006 34.778 121.018 34.5096 121.042 34.2297L122.318 23.416Z" fill="#242424"/>
<path d="M138.578 22.1147C139.858 22.1169 141.034 22.329 142.104 22.751C142.827 22.3089 143.584 22.0885 144.376 22.0899C145.167 22.0913 145.796 22.1974 146.261 22.4083L144.986 32.2769C146.712 30.9498 148.018 29.7387 148.905 28.6435L149.914 30.7805C148.584 32.1783 146.812 33.6686 144.597 35.2515L143.641 42.5654C143.381 44.7585 142.656 46.4373 141.466 47.602C140.3 48.79 138.786 49.3824 136.923 49.3791C135.852 49.3772 134.804 49.0253 133.781 48.3235C132.711 47.5748 132.178 46.3721 132.181 44.7153C132.184 42.6851 133.154 40.8317 135.09 39.155C133.437 39.0354 132.017 38.3445 130.832 37.0822C129.647 35.82 129.056 34.1738 129.06 32.1437C129.065 29.0867 129.966 26.6498 131.762 24.8328C133.558 23.0158 135.83 22.1098 138.578 22.1147ZM139.097 24.8458C137.607 24.8432 136.418 25.4128 135.531 26.5546C134.668 27.6732 134.152 29.3524 133.985 31.5923C133.962 31.8023 133.95 32.0007 133.949 32.1873C133.947 33.3308 134.214 34.2413 134.748 34.919C135.306 35.5967 136.015 35.9363 136.877 35.9379C138.344 35.9405 139.451 34.9157 140.2 32.8635L141.087 25.2694C140.366 24.9881 139.702 24.8469 139.097 24.8458ZM134.871 44.195C134.87 44.8251 135.044 45.3154 135.392 45.6661C135.764 46.0401 136.183 46.2275 136.649 46.2284C137.953 46.2307 138.711 45.4036 138.924 43.7472L139.527 38.4978C136.426 40.3358 134.875 42.2349 134.871 44.195Z" fill="#242424"/>
<path d="M154.252 31.1382C155.696 30.8374 156.768 30.2559 157.469 29.3938C158.192 28.5316 158.554 27.7039 158.556 26.9105C158.557 26.0937 158.337 25.545 157.895 25.2641C157.476 24.96 157.011 24.8075 156.499 24.8066C155.404 24.8047 154.437 25.4214 153.596 26.6567C152.779 27.8686 152.369 29.3264 152.366 31.0299C152.363 32.71 152.757 33.9708 153.547 34.8123C154.361 35.6305 155.361 36.0406 156.549 36.0427C158.295 36.0458 159.973 35.4421 161.581 34.2315C163.19 33.0209 164.497 31.4364 165.502 29.478C166.013 29.9689 166.478 30.5765 166.896 31.3006C166.124 33.0494 164.759 34.7621 162.8 36.4388C161.821 37.2538 160.655 37.9168 159.304 38.4278C157.976 38.9388 156.601 39.1931 155.181 39.1906C152.852 39.1864 151.014 38.4715 149.666 37.0456C148.225 35.5029 147.507 33.5298 147.511 31.1263C147.515 28.7227 148.416 26.6241 150.212 24.8305C152.031 23.0369 154.198 22.1423 156.713 22.1468C158.506 22.15 159.961 22.5492 161.077 23.3446C162.193 24.1167 162.762 25.1678 162.783 26.4979C162.779 28.2947 162.055 29.7519 160.609 30.8694C159.187 31.987 157.23 32.7653 154.737 33.2043L154.252 31.1382Z" fill="#242424"/>
<path d="M173.973 35.0935L174.825 27.2893C174.826 26.6593 174.664 26.1339 174.339 25.7133C174.014 25.2927 173.467 25.0817 172.698 25.0804C171.953 25.079 171.312 25.4163 170.776 26.092C170.262 26.7445 169.935 27.5723 169.793 28.5755C168.944 34.9679 168.495 38.4441 168.447 39.004L163.732 38.9957L165.682 22.5127C166.661 22.2577 167.406 22.1307 167.918 22.1316C169.479 22.1344 170.293 22.7076 170.36 23.8511C171.503 22.733 172.866 22.1754 174.45 22.1782C176.057 22.1811 177.313 22.58 178.22 23.375C179.127 24.17 179.579 25.1742 179.577 26.3877C179.576 26.7144 179.505 27.3326 179.364 28.2424C178.822 31.7885 178.551 33.8532 178.55 34.4365C178.548 35.51 178.908 36.0473 179.63 36.0486C181.213 36.0514 182.415 34.3967 183.236 31.0846C184.026 31.926 184.502 32.5919 184.664 33.0823C183.423 37.1871 181.277 39.2368 178.227 39.2314C176.783 39.2288 175.713 38.7836 175.016 37.8956C174.319 37.0076 173.971 36.0736 173.973 35.0935Z" fill="#242424"/>
<path d="M40.87 73.4041C59.2795 73.4367 74.2297 58.5393 74.2623 40.1299C74.295 21.7204 59.3976 6.77013 40.9881 6.73752C22.5787 6.70491 7.62841 21.6023 7.59579 40.0117C7.56318 58.4212 22.4606 73.3715 40.87 73.4041Z" stroke="#242424" stroke-width="2" stroke-linecap="round" stroke-linejoin="round"/>
<path d="M48.6527 26.7511L67.7273 59.9183" stroke="#242424" stroke-width="2" stroke-linecap="round" stroke-linejoin="round"/>
<path d="M33.2527 26.7238L71.5193 26.7916" stroke="#242424" stroke-width="2" stroke-linecap="round" stroke-linejoin="round"/>
<path d="M25.5291 40.0435L44.7211 6.94414" stroke="#242424" stroke-width="2" stroke-linecap="round" stroke-linejoin="round"/>
<path d="M33.2055 53.3905L14.1309 20.2233" stroke="#242424" stroke-width="2" stroke-linecap="round" stroke-linejoin="round"/>
<path d="M48.6054 53.4177L10.3388 53.3499" stroke="#242424" stroke-width="2" stroke-linecap="round" stroke-linejoin="round"/>
<path d="M56.329 40.0981L37.137 73.1975" stroke="#242424" stroke-width="2" stroke-linecap="round" stroke-linejoin="round"/>
</svg>
